# xmcd
#
# Track frame offsets: 
#        150
#        19590
#        34933
#        52841
#        72859
#        90344
#        109195
#        124447
#        151917
#        170373
#        189273
#        205437
#        231003
#        250168
#
# Disc length: 3545 seconds
#
# Revision: 1
# Processed by: cddbd v1.5.2PL0 Copyright (c) Steve Scherf et al.
# Submitted via: ExactAudioCopyFreeDBPlugin 1.0
#
DISCID=b00dd70e
DTITLE=Alain Clark - Colorblind
DYEAR=2010
DGENRE=Soul
TTITLE0=Wonderful Day
TTITLE1=Caught In A Loop
TTITLE2=Love Is Everywhere
TTITLE3=Good Days
TTITLE4=Too Soon To End (ft. Diane Birch)
TTITLE5=For Freedom
TTITLE6=Leave Her
TTITLE7=Corner Of My Street
TTITLE8=Rich
TTITLE9=Blame It On Me
TTITLE10=I Saw You Again
TTITLE11=Easy
TTITLE12=Summer In My Mind (Bonus Track)
TTITLE13=Slowly Forget You (Bonus Track)
EXTD=
EXTT0=
EXTT1=
EXTT2=
EXTT3=
EXTT4=
EXTT5=
EXTT6=
EXTT7=
EXTT8=
EXTT9=
EXTT10=
EXTT11=
EXTT12=
EXTT13=
PLAYORDER=
